<mxfile host="65bd71144e">
    <diagram id="j7TYNCkDS4uEplfMLQZD" name="Page-1">
        <mxGraphModel dx="697" dy="705" grid="1" gridSize="10" guides="1" tooltips="1" connect="1" arrows="1" fold="1" page="1" pageScale="1" pageWidth="827" pageHeight="1169" math="0" shadow="0">
            <root>
                <mxCell id="0"/>
                <mxCell id="1" parent="0"/>
                <mxCell id="11" value="20" style="text;strokeColor=none;align=center;fillColor=none;html=1;verticalAlign=middle;whiteSpace=wrap;rounded=0;" vertex="1" parent="1">
                    <mxGeometry x="270" y="30" width="60" height="30" as="geometry"/>
                </mxCell>
                <mxCell id="20" value="21" style="text;strokeColor=none;align=center;fillColor=none;html=1;verticalAlign=middle;whiteSpace=wrap;rounded=0;" vertex="1" parent="1">
                    <mxGeometry x="240" y="70" width="60" height="30" as="geometry"/>
                </mxCell>
                <mxCell id="21" value="22" style="text;strokeColor=none;align=center;fillColor=none;html=1;verticalAlign=middle;whiteSpace=wrap;rounded=0;" vertex="1" parent="1">
                    <mxGeometry x="310" y="70" width="60" height="30" as="geometry"/>
                </mxCell>
                <mxCell id="22" value="23" style="text;strokeColor=none;align=center;fillColor=none;html=1;verticalAlign=middle;whiteSpace=wrap;rounded=0;" vertex="1" parent="1">
                    <mxGeometry x="200" y="110" width="60" height="30" as="geometry"/>
                </mxCell>
                <mxCell id="23" value="24" style="text;strokeColor=none;align=center;fillColor=none;html=1;verticalAlign=middle;whiteSpace=wrap;rounded=0;" vertex="1" parent="1">
                    <mxGeometry x="260" y="110" width="60" height="30" as="geometry"/>
                </mxCell>
                <mxCell id="24" value="25" style="text;strokeColor=none;align=center;fillColor=none;html=1;verticalAlign=middle;whiteSpace=wrap;rounded=0;" vertex="1" parent="1">
                    <mxGeometry x="290" y="110" width="60" height="30" as="geometry"/>
                </mxCell>
                <mxCell id="25" value="26" style="text;strokeColor=none;align=center;fillColor=none;html=1;verticalAlign=middle;whiteSpace=wrap;rounded=0;" vertex="1" parent="1">
                    <mxGeometry x="350" y="110" width="60" height="30" as="geometry"/>
                </mxCell>
                <mxCell id="26" value="27" style="text;strokeColor=none;align=center;fillColor=none;html=1;verticalAlign=middle;whiteSpace=wrap;rounded=0;" vertex="1" parent="1">
                    <mxGeometry x="170" y="150" width="60" height="30" as="geometry"/>
                </mxCell>
                <mxCell id="27" value="28" style="text;strokeColor=none;align=center;fillColor=none;html=1;verticalAlign=middle;whiteSpace=wrap;rounded=0;" vertex="1" parent="1">
                    <mxGeometry x="210" y="150" width="60" height="30" as="geometry"/>
                </mxCell>
                <mxCell id="29" value="29" style="text;strokeColor=none;align=center;fillColor=none;html=1;verticalAlign=middle;whiteSpace=wrap;rounded=0;" vertex="1" parent="1">
                    <mxGeometry x="230" y="150" width="60" height="30" as="geometry"/>
                </mxCell>
                <mxCell id="30" value="" style="shape=stencil(fZVJbsMwDEVP4y0hkRrXaXqPAHEao2kcOOl0+8pw0Voi/Hca+ER9khI72d3Ph1vfsbk/pvG1/xyOj3MnTx3zcD330/Aoo072nexO49S/TOP79bjMb4fZch69jR/zCV8LZ40hY2aMzfey9LfwvACX4boCciKRyt5R8tv2KbfnWyGTAWDJ1Q5spnm6BcRE0VcAW0oIELK1Bw4QCGU7VYAwcQSAoVB7EOzBB+JagzPkQFg9k6/D6oqqtA24TFJrcJ6yBYC+UqLgAKDC6i1JAIAqPe9gaUhsRZe4IQ/ilQesQWyb6YDzwCqsgSkKAFRYgyOPPEhb3gGLZlV8IcIr2dQmLmR4JetbDxFn2ioN5Q2iPFiVh4irVaWh/AroOahKSgaerxQnLMC190n4A1BvJ+Nv2FBq7HHZqaeWcREp+1Wj+AXK4L+rnIbLZWlK6/22C5WlpYPJ/gc=);fillColor=none;" vertex="1" parent="1">
                    <mxGeometry x="272" y="49" width="20" height="27.5" as="geometry"/>
                </mxCell>
                <mxCell id="31" value="" style="shape=stencil(fVXLUsMwDPyaXHdsybbsc4H/YIaWZigtU8rr71EmBCrT6ubY2uixK2ng1ev2/mU9UHg9HQ9P64/x4bQd+GYgGvfb9XE86Wng24FXm8Nx/Xg8vO0f5u+X+8lyOj0f3qc/fM64GAJCmGAUvuar34u7GbAb92eAlpGsPaHE6/a1oRRjLwjFsU+gZOxjQEkOIKLZgCKB8nWACKKNKGaQk7IQUrSAiuiEVPS5q1FAbg6AIc0CGMHzECDVApQXx0MWiE1aeWiOh5wglgcOqNUBRAhZAIP5OiBViC0rF5A4gIxiq8Rt+cVlAPc8TDdO0klpsjmkguAkzVpEtoCGQA4gg21ZtW7N6QemnjhlJjlJK01RLEDATj9QXSJeAKoucrSkUqs2pKJBeh64Z7r4HUcROVuA33Gx9VNJoktclH7MCCM7atUZEaz4JKN5HlT93eCrSJ6HCLJVqn7HqdJskSqjOtor/aCsZdHW5Y7uhVT9diNUa99ombQX7UMvo+Y3279Ndba8fgB6+Nt0m3G3mxfl+Xu/GfVq3qp8+w0=);fillColor=none;" vertex="1" parent="1">
                    <mxGeometry x="233" y="91" width="29" height="25.5" as="geometry"/>
                </mxCell>
                <mxCell id="32" value="" style="shape=stencil(fZXLcsMgDEW/xlsNIARinbb/kZk4jadpnHHS199XHvcRUKwdITpcXcmCDjeXw/bcd8FdrtP40n8Mu+uhw4cuhOF06KfhKqsOHzvc7Mepf57Gt9Nu+X3ezpHz6nV8n0/4XDgHzs1QcF/NxtMSfhxON+EMiFV4BMfr4T63x3sPEdeBEMDHGiDI0QAiINdABqR1AJXjYKeEBKn2HBK4sA5ErVDMKkUEXyug/9W8DyTg2jRG8IYCqZQwQzDKSgiZaqAAGx8GZaBaQVxhXgeSh1AriKtipJSo9SCuyBsAt2WlCFTWgezbspIckQxApSSustG4rFISV2h4YFUlccVGp1k1TlxZZeXUKuQI0agSKw9ZptxQKOrjy8XsQ1F94L9r4T6gTHOEZCmomWZ7HoqaOHFlNa6om1KSDMYAeafKJFkW4565Q9xs/SCy+L/698PxuLwct/+3T4VsLc8MPn4D);fillColor=none;" vertex="1" parent="1">
                    <mxGeometry x="266" y="94" width="20" height="24.5" as="geometry"/>
                </mxCell>
                <mxCell id="33" value="" style="shape=stencil(hZTdbsIwDIWfprdWYjuxc83YeyBRRjVGUWF/b79UHRouq7lLU3/xsXXshlbn/ebUNhjOl6F/bT+77WXf0FOD2B337dBd6qmhdUOrXT+0L0P/ftxO36fNGDme3vqP8YWviQsQwghh+J5dPE/hh+54E64QkgnPEPJyeGRgNfERgTyggFg9USHqMoAIHA2AERQdQIFtCVgglGWA7mqg7GbgcH3vCjC7GThBtkCKbpdSAM0WEBBygJrBtjX7knIAYgsUSMkBGBANIA8yCGSxgADKMiAB0BatvlflzhrqW6MqTlaSEmR2gAxii9Z0ddf/QAGaSfK9VBXzTJK6kpTnE1oeTHQGtJKK36UqQKxbC7kjWt8jO0CFXS/V9xJZIEGJDlC7bu1dBJInSebWKP4SiOFuUd5c/SL18Ldmd93hMG3p2//ztVyvppVO6x8=);fillColor=none;" vertex="1" parent="1">
                    <mxGeometry x="306" y="50" width="29" height="27.5" as="geometry"/>
                </mxCell>
                <mxCell id="34" value="" style="shape=stencil(fZTLcsIwDEW/Jts7tuWHvKb0P5ghlEzThAnp6+/rjAtFoWjnKDq27rWshjbn4+7UNs6c52l8bT+7/Xxs6KlxrhuO7dTNZdXQtqHNYZzal2l8H/b1+7RbMpfV2/ix7PBVOWsMjFkwZ75r6Bp4rkDfDTdAJqQg8tMl8G8+h/X+lpAVIGX4KAFGVCpKEUECRUImBTAgK4EIGx8DkeBYAGThlZJCAssTyINZAQiWJMCqS57hvQA8wTgFuLs3nxDTY4AyjLQ1OJBiK4WLiVcgIiuii4lOlhQtjCLa8dqlWM5URLu75osZNiuAvVzTtbud6lLpzfVz0HvJBkSpoTS80U5wCFIDW9XWDJISWO+9BCMLYgYpBXnYJPJzeQyagPXzzAGk3PLdQLqZUb9AWfwNtEPX93Ue3v5fD8ASqsOTtj8=);fillColor=none;" vertex="1" parent="1">
                    <mxGeometry x="319" y="96" width="16" height="21.5" as="geometry"/>
                </mxCell>
                <mxCell id="35" value="" style="shape=stencil(fZVLcsMwCIZP4y2DhNBjnab3yEycxtM0zjjp6/bF49oNasxOxnxIiB/R0OZ63F3axuP1NvSv7We3vx0bemq8787Hduhusmpo29Dm0A/ty9C/n/fT92U3eo6rt/5jjPA1cQiII+TxuzI8T+6n7nznHoGjcidIad3dRaCi/J0HzOuAZ/Aa8A7QG0CGWAEBMK4DJDuwTgHBlXUguDoHipAsQJJ2CpAQxUiaEUIFyA5GFZjqpNkuG0dwOmn2QMYtsVyrPhIHSEYdIkLUyuAEzAZA4KodChRnAAycFBA9eCOHmAFJAwGikUPCWZsLEM3CJQ+u2qEABQNY2mUGkjMrnbiWhoRg60gJgq6DhLCkkQo4/QKkCNmQd0ZIQQPZfASySE1fa17E8hgIc8svgDe1lLkWn4QIZABpvvUFkKY1pJGXui6AdIhRh4KzcmagyENmSKNQrVaxBKNwhWu1iiVagDSkzqHkuQcfv974bzrcmX4RWfzNlkN3Ok2j6f5/PYvENM0x2v4A);fillColor=none;" vertex="1" parent="1">
                    <mxGeometry x="345" y="94" width="30.5" height="26.5" as="geometry"/>
                </mxCell>
                <mxCell id="36" value="" style="shape=stencil(fZTZcoMwDEW/htc7luT1OU3/IzMhhSkNGUK3vy+MQ4ua4Dch32NrpZLdtTlc6orNdRz61/qzPY5NJU8Vc3tu6qEdJ6uSfSW7Uz/UL0P/fj7m78thVs7WW/8x3/CVOTIGxswYm+/s+nU8Z6BrzysgGSRS+oDgtvUhgqLSU4KTbcB7RA1wQipE5AUmKEAEgbcBZ+GcAiyB4zZgPVzSQAT7bUASWBd1evMW5GNA4FgDsZgDR1jdBs8IqQBYWNGAQyiUlQlGh+QTqPACBRhd1sDwhaTprnHBI9jC7MF7pY8EW5oMRJ1B9EuIj7uwVHDRT8NeKhGBrNY7SOH+u1Vbbd8NmIy/VT21XZc3fX3+f7UnV/4tyP4H);fillColor=none;" vertex="1" parent="1">
                    <mxGeometry x="198" y="130" width="22" height="21.5" as="geometry"/>
                </mxCell>
                <mxCell id="37" value="" style="shape=stencil(fVTLboQwDPwarlYSJ3Fy3m7/Y6VlCyqFFUtff98gKhUHdW7BzMRjj+OGT4/ucm8bZx7LPL22n/116Rp+apzrx66d+6WcGj43fLpNc/syT+/jdfu+X1bkenqbPtYbvjaeIWNWkjPfVeB5gw/9uIMLJa/gjqL8D7eRvCh8pgiud5ZSUHgbyDMghFq/FQogAxtKSVfgYMUcSaImCCT40hJdA1soyScKrAkRZgiOsnbBY9eCEGtJ3kNCtHXRRSQkeBKrCEUkKjpK3aWA2xozWacIEbdViq+6hhgwgWsfSk74GA7DJ7hokdo4wU6nw7RKhhkSU9JdKhGY4TDeJYIyZEtWS0pYUva1cZmJwZvOUhuX8WhYc9hiu9AvpRz+duCtH4Zthe7/1zuzhLZ9y+cf);fillColor=none;" vertex="1" parent="1">
                    <mxGeometry x="230" y="134" width="8.5" height="25" as="geometry"/>
                </mxCell>
                <mxCell id="38" value="" style="shape=stencil(fZVNcsIwDIVPk+0bW7Jle03pPZghlEwpYYD+3b7OpKEoKdo5jj7Z8nuWG15d9ptT25C7XM/9a/vZba/7hp8aou64b8/dtY4aXje82vXn9uXcvx+34/dpM0QOo7f+Y8jwNXLeOTg3YOS+x6nbxPMIHLrjHVAIIar4iCiP43OA1/GeEI0FkiCTBhKysUJixKyAWgL7x4AIygyoNZABOGRdAzuQsUKM8EUDAZwNwCEkDSTzlIKAWAHBQdgAFroFnlL8C3CBaB1CRLYAQdJFh4RiHCszimgr2d5jD6+LjgQxAMpgbe6qjCVcNcJMh1jNZwF1A0EB1SzBKNqXKd8NYDgLWLhVoqm0X9w4yabS3s+FS85UuiBoGRKZQlcr6w2laOosc5lTMmUOSNqp2b6ejKRFzgw26qXpNG7xgmB0JI+szzOXqUU9iCd9D0q1hJHfoWjPldozjfyLFn/X9X+BOvh7Inbd4TC+MPf/509KnRqfI17/AA==);fillColor=none;" vertex="1" parent="1">
                    <mxGeometry x="261.5" y="133" width="26.5" height="24" as="geometry"/>
                </mxCell>
            </root>
        </mxGraphModel>
    </diagram>
</mxfile>